<svg width="24" height="26" viewBox="0 0 24 26" fill="none" xmlns="http://www.w3.org/2000/svg">
<path d="M15.7813 19.7756C18.2887 19.476 20.7066 18.8821 23 18.0292C21.0984 15.9027 19.941 13.0875 19.941 10V9.06558C19.9411 9.04374 19.9412 9.02188 19.9412 9C19.9412 4.58172 16.3859 1 12.0003 1C7.61458 1 4.05929 4.58172 4.05929 9L4.05903 10C4.05903 13.0875 2.90159 15.9027 1 18.0292C3.29352 18.8821 5.71159 19.4761 8.21921 19.7757M15.7813 19.7756C14.5413 19.9238 13.2795 20 12 20C10.7207 20 9.45899 19.9238 8.21921 19.7757M15.7813 19.7756C15.9043 20.1615 15.9707 20.5729 15.9707 21C15.9707 23.2091 14.1931 25 12.0003 25C9.80742 25 8.02978 23.2091 8.02978 21C8.02978 20.573 8.0962 20.1615 8.21921 19.7757" stroke="#0F172A" stroke-width="1.5" stroke-linecap="round" stroke-linejoin="round"/>
</svg>
