<svg width="22" height="24" viewBox="0 0 22 24" fill="none" xmlns="http://www.w3.org/2000/svg">
<path fill-rule="evenodd" clip-rule="evenodd" d="M2.80608 8.30745C2.80621 3.71935 6.47481 0 11.0002 0C15.5257 0 19.1944 3.71948 19.1944 8.30769L19.1942 8.36823V9.23077C19.1942 11.8439 20.1666 14.2245 21.766 16.0245C21.9681 16.2519 22.0458 16.5662 21.9735 16.8635C21.9011 17.1607 21.6881 17.4022 21.4048 17.5083C19.5305 18.2098 17.5684 18.7272 15.5399 19.039C15.5483 19.1532 15.5525 19.2684 15.5525 19.3846C15.5525 21.9336 13.5144 24 11.0002 24C8.48607 24 6.44793 21.9336 6.44793 19.3846C6.44793 19.2685 6.45218 19.1532 6.46054 19.0391C4.43196 18.7273 2.46965 18.2098 0.595167 17.5083C0.311877 17.4022 0.0988722 17.1607 0.0265272 16.8635C-0.0458177 16.5662 0.0319115 16.2519 0.234034 16.0245C1.83345 14.2245 2.80584 11.8439 2.80584 9.23077L2.80608 8.30745ZM8.27153 19.2606C8.26975 19.3017 8.26885 19.343 8.26885 19.3846C8.26885 20.914 9.49174 22.1538 11.0002 22.1538C12.5087 22.1538 13.7316 20.914 13.7316 19.3846C13.7316 19.343 13.7307 19.3017 13.7289 19.2606C12.8299 19.3427 11.9197 19.3846 11 19.3846C10.0805 19.3846 9.1704 19.3427 8.27153 19.2606Z" fill="#8D94A4"/>
</svg>
