<svg width="24" height="24" viewBox="0 0 24 24" fill="none" xmlns="http://www.w3.org/2000/svg">
<path fill-rule="evenodd" clip-rule="evenodd" d="M0 12C0 5.37258 5.37258 0 12 0C18.6274 0 24 5.37258 24 12C24 18.6274 18.6274 24 12 24C5.37258 24 0 18.6274 0 12ZM12 7.38462C12.5098 7.38462 12.9231 7.79789 12.9231 8.30769V12.9231C12.9231 13.4329 12.5098 13.8462 12 13.8462C11.4902 13.8462 11.0769 13.4329 11.0769 12.9231V8.30769C11.0769 7.79789 11.4902 7.38462 12 7.38462ZM12 17.5385C12.5098 17.5385 12.9231 17.1252 12.9231 16.6154C12.9231 16.1056 12.5098 15.6923 12 15.6923C11.4902 15.6923 11.0769 16.1056 11.0769 16.6154C11.0769 17.1252 11.4902 17.5385 12 17.5385Z" fill="#13459E"/>
</svg>
