<svg width="25" height="26" viewBox="0 0 25 26" fill="none" xmlns="http://www.w3.org/2000/svg">
<path d="M9.27941 2.2534C9.4004 1.53012 10.0285 1 10.7644 1H14.2356C14.9715 1 15.5996 1.53012 15.7206 2.2534L16.0063 3.96147C16.0897 4.46019 16.4242 4.87562 16.8682 5.12048C16.9675 5.17522 17.0656 5.23178 17.1625 5.2901C17.5975 5.55179 18.1265 5.63315 18.6023 5.45554L20.2307 4.8477C20.9199 4.59046 21.6947 4.86734 22.0626 5.50236L23.7982 8.49762C24.1662 9.13264 24.0194 9.93964 23.4513 10.4057L22.1073 11.5081C21.7158 11.8292 21.5218 12.325 21.5312 12.83C21.5322 12.8866 21.5328 12.9432 21.5328 13C21.5328 13.0568 21.5322 13.1134 21.5312 13.1699C21.5218 13.675 21.7158 14.1708 22.1073 14.4919L23.4513 15.5943C24.0194 16.0603 24.1662 16.8673 23.7982 17.5024L22.0626 20.4976C21.6947 21.1326 20.9199 21.4095 20.2307 21.1523L18.6023 20.5444C18.1265 20.3668 17.5975 20.4482 17.1625 20.7099C17.0656 20.7682 16.9675 20.8248 16.8682 20.8795C16.4242 21.1244 16.0897 21.5398 16.0063 22.0385L15.7206 23.7466C15.5996 24.4699 14.9715 25 14.2356 25H10.7644C10.0285 25 9.4004 24.4699 9.27941 23.7466L8.9937 22.0385C8.91028 21.5398 8.57577 21.1244 8.1318 20.8795C8.03254 20.8248 7.93442 20.7682 7.8375 20.7099C7.40254 20.4482 6.87351 20.3668 6.3977 20.5445L4.7693 21.1523C4.08015 21.4095 3.30535 21.1327 2.93738 20.4976L1.20178 17.5024C0.833813 16.8674 0.98055 16.0604 1.54872 15.5943L2.89273 14.4919C3.28416 14.1708 3.4782 13.675 3.46881 13.17C3.46776 13.1134 3.46723 13.0568 3.46723 13C3.46723 12.9432 3.46776 12.8866 3.46881 12.8301C3.47819 12.325 3.28416 11.8292 2.89273 11.5081L1.54872 10.4057C0.980549 9.93966 0.833813 9.13266 1.20178 8.49764L2.93738 5.50238C3.30535 4.86736 4.08015 4.59048 4.7693 4.84772L6.39768 5.45556C6.87349 5.63316 7.40252 5.5518 7.83748 5.29011C7.93441 5.23178 8.03253 5.17523 8.1318 5.12048C8.57577 4.87562 8.91028 4.46019 8.9937 3.96147L9.27941 2.2534Z" stroke="#0F172A" stroke-width="1.5" stroke-linecap="round" stroke-linejoin="round"/>
<path d="M16.5143 12.9999C16.5143 15.209 14.7169 16.9999 12.4997 16.9999C10.2825 16.9999 8.48513 15.209 8.48513 12.9999C8.48513 10.7908 10.2825 8.99989 12.4997 8.99989C14.7169 8.99989 16.5143 10.7908 16.5143 12.9999Z" stroke="#0F172A" stroke-width="1.5" stroke-linecap="round" stroke-linejoin="round"/>
</svg>
