<svg width="23" height="24" viewBox="0 0 23 24" fill="none" xmlns="http://www.w3.org/2000/svg">
<path fill-rule="evenodd" clip-rule="evenodd" d="M10.342 0C9.19082 0 8.20836 0.815569 8.01911 1.92831L7.79471 3.24767C7.7694 3.39648 7.65112 3.56898 7.42215 3.67688C6.99002 3.88052 6.57633 4.11544 6.18412 4.37859C5.97502 4.51888 5.76361 4.53317 5.6193 4.48019L4.33923 4.01026C3.26121 3.6145 2.04921 4.04047 1.47362 5.01743L0.315634 6.98287C-0.259962 7.95982 -0.0304258 9.20137 0.858343 9.91835L1.91402 10.77C2.03287 10.8659 2.12594 11.0521 2.10698 11.2994C2.08923 11.5308 2.0802 11.7644 2.0802 12C2.0802 12.2356 2.08923 12.4694 2.107 12.7009C2.12597 12.9482 2.03289 13.1344 1.91404 13.2303L0.858343 14.0819C-0.0304261 14.7989 -0.259962 16.0405 0.315634 17.0174L1.47362 18.9829C2.04921 19.9598 3.26121 20.3858 4.33923 19.99L5.61958 19.52C5.76389 19.467 5.97529 19.4813 6.18438 19.6216C6.57652 19.8847 6.99012 20.1195 7.42215 20.3231C7.65112 20.431 7.7694 20.6035 7.79471 20.7523L8.01911 22.0717C8.20836 23.1844 9.19082 24 10.342 24H12.658C13.8092 24 14.7916 23.1844 14.9809 22.0717L15.2053 20.7523C15.2306 20.6035 15.3489 20.431 15.5779 20.3231C16.01 20.1195 16.4237 19.8846 16.8159 19.6214C17.025 19.4811 17.2364 19.4668 17.3807 19.5198L18.6608 19.9897C19.7388 20.3855 20.9508 19.9595 21.5264 18.9826L22.6844 17.0171C23.26 16.0402 23.0304 14.7986 22.1417 14.0816L21.086 13.23C20.9671 13.1341 20.8741 12.9479 20.893 12.7007C20.9108 12.4692 20.9198 12.2356 20.9198 12C20.9198 11.7644 20.9108 11.5306 20.893 11.2991C20.874 11.0518 20.9671 10.8656 21.086 10.7697L22.1417 9.91805C23.0304 9.20107 23.26 7.95953 22.6844 6.98257L21.5264 5.01713C20.9508 4.04018 19.7388 3.6142 18.6608 4.00996L17.3804 4.47999C17.2361 4.53297 17.0247 4.51869 16.8156 4.37841C16.4235 4.11533 16.0099 3.88047 15.5779 3.67688C15.3489 3.56898 15.2306 3.39648 15.2053 3.24767L14.9809 1.92831C14.7916 0.815567 13.8092 0 12.658 0H10.342ZM11.5002 16.6154C14.1014 16.6154 16.21 14.549 16.21 12C16.21 9.45099 14.1014 7.38462 11.5002 7.38462C8.89895 7.38462 6.79026 9.45099 6.79026 12C6.79026 14.549 8.89895 16.6154 11.5002 16.6154Z" fill="#8D9098"/>
</svg>
