<svg width="25" height="24" viewBox="0 0 25 24" fill="none" xmlns="http://www.w3.org/2000/svg">
<path d="M11.8687 2.10264C12.2173 1.74452 12.7827 1.74452 13.1313 2.10264L23.4758 12.7271C23.8245 13.0852 24.3898 13.0852 24.7385 12.7271C25.0872 12.369 25.0872 11.7884 24.7385 11.4302L14.394 0.805771C13.348 -0.268592 11.652 -0.268589 10.606 0.805772L0.261512 11.4302C-0.0871706 11.7884 -0.0871706 12.369 0.261512 12.7271C0.610194 13.0852 1.17552 13.0852 1.5242 12.7271L11.8687 2.10264Z" fill="#13459E"/>
<path d="M12.5 4.04795L22.2131 14.024C22.2485 14.0603 22.2846 14.0954 22.3214 14.1293V21.7074C22.3214 22.9736 21.3221 24 20.0893 24H16.0714C15.5783 24 15.1786 23.5894 15.1786 23.083V17.5808C15.1786 17.0744 14.7788 16.6638 14.2857 16.6638H10.7143C10.2212 16.6638 9.82143 17.0744 9.82143 17.5808V23.083C9.82143 23.5894 9.42168 24 8.92857 24H4.91071C3.67794 24 2.67857 22.9736 2.67857 21.7074V14.1293C2.71539 14.0954 2.75151 14.0603 2.78689 14.024L12.5 4.04795Z" fill="#13459E"/>
</svg>
