<svg width="26" height="26" viewBox="0 0 26 26" fill="none" xmlns="http://www.w3.org/2000/svg">
<path d="M20.9754 21.9664C19.1495 19.5566 16.2565 18 13 18C9.74348 18 6.85052 19.5566 5.02462 21.9664M20.9754 21.9664C23.4447 19.7685 25 16.5659 25 13C25 6.37258 19.6274 1 13 1C6.37258 1 1 6.37258 1 13C1 16.5659 2.55534 19.7685 5.02462 21.9664M20.9754 21.9664C18.8553 23.8535 16.0616 25 13 25C9.93845 25 7.14468 23.8535 5.02462 21.9664M17 10C17 12.2091 15.2091 14 13 14C10.7909 14 9 12.2091 9 10C9 7.79086 10.7909 6 13 6C15.2091 6 17 7.79086 17 10Z" stroke="#0F172A" stroke-width="1.5" stroke-linecap="round" stroke-linejoin="round"/>
</svg>
