<svg width="19" height="24" viewBox="0 0 19 24" fill="none" xmlns="http://www.w3.org/2000/svg">
<path fill-rule="evenodd" clip-rule="evenodd" d="M4.31747 5.14286C4.31747 2.30254 6.63776 0 9.5 0C12.3622 0 14.6825 2.30254 14.6825 5.14286C14.6825 7.98318 12.3622 10.2857 9.5 10.2857C6.63776 10.2857 4.31747 7.98318 4.31747 5.14286Z" fill="#13459E"/>
<path fill-rule="evenodd" clip-rule="evenodd" d="M0.00012891 21.2632C0.0891995 16.1321 4.30824 12 9.5 12C14.6919 12 18.911 16.1323 18.9999 21.2636C19.0058 21.6039 18.8082 21.9154 18.4965 22.0574C15.7567 23.3049 12.7092 24 9.50037 24C6.29127 24 3.24346 23.3048 0.503497 22.057C0.191774 21.9151 -0.00577839 21.6035 0.00012891 21.2632Z" fill="#13459E"/>
</svg>
