<svg width="24" height="24" viewBox="0 0 24 24" fill="none" xmlns="http://www.w3.org/2000/svg">
<path fill-rule="evenodd" clip-rule="evenodd" d="M20.2282 20.7349C22.5503 18.5466 24 15.4426 24 12C24 5.37258 18.6274 0 12 0C5.37258 0 0 5.37258 0 12C0 15.4426 1.44967 18.5466 3.77185 20.7349C5.92014 22.7593 8.81518 24 12 24C15.1848 24 18.0799 22.7593 20.2282 20.7349ZM4.794 19.1536C6.48568 17.0434 9.08505 15.6923 12 15.6923C14.9149 15.6923 17.5143 17.0434 19.206 19.1536C17.3665 21.0065 14.8172 22.1538 12 22.1538C9.18277 22.1538 6.63351 21.0065 4.794 19.1536ZM16.6154 8.30769C16.6154 10.8567 14.549 12.9231 12 12.9231C9.45099 12.9231 7.38462 10.8567 7.38462 8.30769C7.38462 5.75869 9.45099 3.69231 12 3.69231C14.549 3.69231 16.6154 5.75869 16.6154 8.30769Z" fill="#A7AEBE"/>
</svg>
